<?xml version="1.0" encoding="utf-8"?>
<!-- Generator: Adobe Illustrator 23.0.4, SVG Export Plug-In . SVG Version: 6.00 Build 0)  -->
<svg version="1.1" id="Layer_1" xmlns="http://www.w3.org/2000/svg" xmlns:xlink="http://www.w3.org/1999/xlink" x="0px" y="0px"
	 viewBox="0 0 150.7 40" style="enable-background:new 0 0 150.7 40;" xml:space="preserve">
<style type="text/css">
	.st0{fill:#29EA80;}
</style>
<path class="st0" d="M148.6,22.1l2.1-2.1l-2.1-2.1c0,0,0,0,0,0l-17-17c-1.2-1.2-3.1-1.2-4.2,0c-1.2,1.2-1.2,3.1,0,4.2L139.3,17H3
	c-1.7,0-3,1.3-3,3c0,1.7,1.3,3,3,3h136.3l-11.9,11.9c-1.2,1.2-1.2,3.1,0,4.2c0.6,0.6,1.4,0.9,2.1,0.9s1.5-0.3,2.1-0.9L148.6,22.1
	C148.6,22.1,148.6,22.1,148.6,22.1z"/>
</svg>
